<?xml version="1.0" standalone="no"?>
<!DOCTYPE svg PUBLIC "-//W3C//DTD SVG 20010904//EN"
 "http://www.w3.org/TR/2001/REC-SVG-20010904/DTD/svg10.dtd">
<svg version="1.0" xmlns="http://www.w3.org/2000/svg"
 width="128.000000pt" height="128.000000pt" viewBox="0 0 128.000000 128.000000"
 preserveAspectRatio="xMidYMid meet">
<metadata>
Created by potrace 1.14, written by Peter Selinger 2001-2017
</metadata>
<g transform="translate(0.000000,128.000000) scale(0.100000,-0.100000)"
fill="#000000" stroke="none">
<path d="M0 640 l0 -640 640 0 640 0 0 640 0 640 -640 0 -640 0 0 -640z m1140
400 c19 -19 20 -33 20 -387 0 -327 -2 -368 -17 -385 -15 -17 -44 -18 -498 -18
-361 0 -484 3 -493 12 -9 9 -12 109 -12 389 l0 378 22 15 c20 14 83 16 490 16
455 0 469 -1 488 -20z"/>
<path d="M172 1032 c-9 -7 -12 -90 -10 -383 l3 -374 479 -3 c377 -2 481 0 488
10 13 22 10 732 -4 746 -14 14 -934 17 -956 4z m351 -49 c19 -17 20 -17 14 0
-7 19 17 25 29 6 5 -8 9 -7 14 1 10 16 40 5 40 -14 0 -29 -28 -45 -72 -40 -23
3 -45 7 -49 10 -4 2 -12 -3 -19 -11 -10 -13 -9 -23 5 -55 22 -50 10 -91 -27
-89 -13 1 -30 -1 -39 -5 -12 -5 -18 -1 -22 15 -8 29 -5 32 35 33 28 1 33 5 36
29 3 28 -6 32 -43 18 -24 -10 -45 4 -45 30 0 21 22 38 28 21 5 -17 20 -15 54
9 20 15 28 28 25 40 -6 24 10 24 36 2z m371 -19 c90 -31 122 -29 118 4 -3 20
0 23 20 20 50 -7 22 -68 -32 -68 -16 0 -32 -4 -35 -10 -4 -6 -16 -4 -31 6 -13
9 -24 12 -24 6 0 -6 -9 -8 -20 -5 -11 3 -20 10 -20 15 0 5 -5 6 -11 3 -6 -4
-16 1 -23 10 -8 11 -23 16 -46 13 -28 -2 -36 -8 -38 -26 -4 -23 13 -52 29 -52
5 0 9 7 9 15 0 20 10 19 26 -2 7 -10 14 -13 14 -8 0 13 155 8 193 -7 34 -13
45 -50 23 -83 -9 -13 -16 -42 -16 -63 0 -24 -8 -49 -20 -65 -24 -30 -27 -62
-5 -53 17 6 21 -9 5 -19 -6 -4 -2 -15 10 -27 11 -12 20 -25 20 -28 0 -4 -43
-6 -95 -4 -52 1 -98 -2 -101 -7 -9 -14 -64 -10 -80 6 -16 16 -10 20 50 40 17
5 15 9 -17 31 -20 13 -37 29 -37 34 0 12 68 33 85 26 8 -3 15 -13 15 -23 0
-25 16 -47 28 -39 12 7 -23 76 -38 76 -4 0 -6 10 -3 21 4 16 2 20 -8 17 -8 -3
-13 -11 -12 -19 1 -9 -29 -28 -81 -51 -97 -44 -106 -46 -106 -16 0 17 3 19 12
10 16 -16 28 -15 28 3 0 8 -7 15 -15 15 -8 0 -15 6 -15 14 0 25 -30 46 -64 46
-46 0 -60 -20 -52 -75 8 -52 0 -56 -42 -20 -40 33 -56 79 -35 96 12 11 17 10
25 -4 9 -16 10 -16 33 0 32 24 32 40 0 19 -22 -14 -25 -15 -25 -1 0 18 -5 19
-33 4 -22 -11 -22 -11 1 14 19 20 32 24 65 23 59 -3 153 17 149 32 -1 7 9 12
25 12 24 -1 26 -2 12 -13 -9 -7 -14 -18 -12 -24 4 -12 -15 -18 -44 -14 -7 1
-13 -6 -13 -15 0 -12 -6 -15 -24 -10 -13 3 -34 2 -46 -2 -16 -6 -9 -8 29 -9
28 0 51 3 51 7 0 5 16 14 35 20 19 6 33 15 30 19 -2 5 29 18 70 30 71 21 133
24 210 10 12 -3 21 2 23 13 5 25 -48 35 -137 25 -50 -5 -89 -4 -114 3 -21 6
-47 8 -57 5 -14 -4 -20 -2 -20 9 0 8 4 17 9 20 5 3 7 15 4 26 -7 26 12 48 51
59 48 14 61 13 140 -15z m-572 -2 c-8 -2 -12 -38 -12 -118 0 -105 -1 -114 -19
-114 -22 0 -27 24 -26 134 0 69 3 80 24 97 12 10 28 16 34 12 8 -5 7 -8 -1
-11z m213 -42 c4 -6 12 -7 18 -3 16 10 48 12 71 6 14 -4 15 -7 6 -13 -15 -9
-5 -30 16 -30 8 0 14 -4 14 -8 0 -10 -45 -32 -65 -32 -8 0 -15 -5 -15 -11 0
-5 -5 -7 -11 -3 -7 4 -21 7 -33 8 -12 1 -22 9 -24 20 -3 15 0 18 18 13 33 -8
80 3 80 19 0 8 -4 14 -10 14 -5 0 -10 -5 -10 -11 0 -6 -6 -9 -14 -6 -8 3 -17
1 -19 -6 -3 -9 -8 -9 -20 1 -9 8 -21 11 -26 8 -9 -6 -31 22 -31 38 0 10 49 6
55 -4z m-192 -57 c-5 -14 -2 -15 28 -8 19 4 43 8 54 9 23 1 34 -17 13 -22 -9
-2 -8 0 2 7 13 9 12 11 -5 11 -11 -1 -29 -7 -39 -15 -23 -17 -62 -20 -71 -5
-9 14 1 40 14 40 6 0 8 -7 4 -17z m332 -22 c19 -8 19 -8 -3 -15 -12 -4 -20
-12 -17 -17 4 -5 -4 -10 -17 -11 -51 -3 -138 -5 -138 -3 0 16 14 34 23 28 16
-10 67 -12 67 -2 0 5 11 9 25 9 14 0 25 5 25 10 0 12 7 12 35 1z m-354 -140
c-5 -4 -9 -15 -9 -26 1 -11 -2 -32 -5 -47 -6 -22 -4 -28 8 -28 21 0 19 -9 -7
-30 -20 -16 -24 -16 -45 -3 l-23 15 22 20 c30 25 33 98 6 98 -10 0 -18 6 -18
13 0 9 9 12 29 9 17 -2 32 1 37 10 7 10 9 9 12 -6 2 -10 -1 -22 -7 -25z m309
-11 c6 -12 9 -28 6 -38 -18 -68 -18 -75 3 -69 22 5 29 -7 10 -19 -8 -4 -8 -9
0 -17 19 -19 12 -29 -15 -23 -16 4 -32 2 -42 -6 -12 -11 -16 -11 -20 0 -3 10
-7 10 -19 1 -11 -10 -16 -10 -23 0 -5 9 -10 10 -14 2 -9 -14 -26 -14 -26 -1 0
6 16 20 36 32 34 20 36 24 30 59 -3 20 -8 44 -12 52 -15 39 66 64 86 27z
m-182 -22 c10 -28 9 -34 -8 -50 -11 -10 -20 -23 -20 -29 0 -6 -4 -7 -10 -4 -5
3 -10 15 -10 26 0 19 -4 20 -42 14 -36 -6 -40 -5 -35 10 4 9 7 26 7 36 0 15 5
19 19 14 10 -3 29 -1 42 4 38 15 44 13 57 -21z m-178 -13 c0 -36 -13 -47 -24
-19 -11 28 -6 54 9 54 10 0 15 -11 15 -35z m80 -205 c0 -21 -15 -27 -25 -10
-12 20 -25 9 -25 -20 0 -29 13 -40 25 -20 11 17 25 11 25 -11 0 -17 -5 -20
-37 -17 -35 3 -38 6 -41 36 -5 50 3 62 43 62 28 0 35 -4 35 -20z m80 15 c0 -3
-10 -10 -22 -15 l-23 -9 23 -7 c25 -7 30 -24 7 -24 -8 0 -15 -4 -15 -10 0 -5
7 -10 15 -10 8 0 15 -4 15 -10 0 -5 -13 -10 -30 -10 -29 0 -30 1 -30 50 0 49
1 50 30 50 17 0 30 -2 30 -5z m44 -7 c5 -10 7 -10 12 0 3 6 12 12 19 12 12 0
12 -7 0 -41 -8 -23 -12 -45 -9 -50 3 -5 -4 -9 -14 -9 -15 0 -21 9 -24 33 -3
17 -8 40 -13 50 -8 20 20 25 29 5z m86 -28 c0 -29 4 -40 15 -40 11 0 15 11 15
40 l0 40 40 0 40 0 0 -50 0 -49 -70 0 -70 0 0 50 c0 37 4 49 15 49 11 0 15
-11 15 -40z m168 18 l11 -23 0 23 c2 46 21 20 21 -28 0 -55 -18 -68 -38 -27
l-11 22 0 -22 c-2 -47 -21 -21 -21 27 0 55 18 68 38 28z m142 12 c0 -5 -4 -10
-10 -10 -5 0 -10 -18 -10 -40 0 -29 -4 -40 -15 -40 -11 0 -15 11 -15 40 0 22
-4 40 -10 40 -5 0 -10 5 -10 10 0 6 16 10 35 10 19 0 35 -4 35 -10z m70 0 c0
-5 -7 -10 -15 -10 -8 0 -15 -4 -15 -10 0 -5 7 -10 15 -10 8 0 15 -4 15 -10 0
-5 -7 -10 -15 -10 -8 0 -15 -4 -15 -10 0 -5 7 -10 15 -10 8 0 15 -4 15 -10 0
-5 -13 -10 -30 -10 -29 0 -30 1 -30 50 0 49 1 50 30 50 17 0 30 -4 30 -10z
m77 -40 c8 -39 7 -50 -4 -54 -7 -3 -13 1 -13 9 0 8 -7 15 -16 15 -8 0 -12 -4
-9 -10 3 -5 -1 -10 -10 -10 -14 0 -16 7 -10 43 9 52 12 57 34 57 14 0 21 -12
28 -50z m-703 -87 c8 -20 -8 -38 -28 -30 -12 5 -14 20 -7 45 3 10 30 -1 35
-15z m45 7 c0 -3 -4 -13 -8 -23 -6 -17 -8 -16 -18 6 -11 23 -10 26 8 24 10 -1
19 -4 18 -7z m32 -2 c0 -10 2 -10 6 0 8 20 23 14 23 -11 0 -18 -6 -23 -25 -23
-19 0 -25 5 -25 23 0 23 19 33 21 11z m79 -5 c1 -17 1 -17 11 0 5 9 19 17 30
17 15 0 20 -6 17 -22 -3 -20 -10 -23 -50 -25 -45 -2 -48 0 -48 22 0 18 5 25
20 25 12 0 20 -7 20 -17z m100 -18 c5 3 10 1 10 -4 0 -6 -9 -11 -20 -11 -15 0
-20 6 -19 28 0 26 0 27 10 4 5 -13 13 -20 19 -17z m80 15 c0 -24 -26 -38 -42
-22 -16 16 -2 42 22 42 13 0 20 -7 20 -20z m36 13 c-11 -3 -14 -8 -9 -12 7 -4
6 -11 -3 -19 -12 -11 -14 -9 -14 13 0 20 5 25 23 24 19 -1 19 -2 3 -6z m84 -5
c0 -9 3 -9 9 1 7 11 10 9 13 -10 l5 -24 11 25 c9 22 11 22 12 5 1 -18 1 -19
11 -2 5 9 14 17 19 17 6 0 10 -8 10 -17 1 -17 1 -17 14 0 13 17 14 16 19 -3 7
-26 27 -26 27 0 0 19 6 21 50 19 28 -2 50 -5 49 -8 0 -3 -4 -15 -8 -26 -8 -19
-8 -19 -15 3 -4 12 -11 22 -16 22 -4 0 -11 -10 -15 -22 l-8 -23 -4 23 c-5 27
-23 29 -23 3 0 -17 -7 -19 -72 -18 -40 1 -76 7 -80 12 -5 6 -8 5 -8 -2 0 -16
-36 -17 -45 -3 -4 6 -4 17 -1 25 7 18 46 20 46 3z"/>
<path d="M408 903 c7 -3 16 -2 19 1 4 3 -2 6 -13 5 -11 0 -14 -3 -6 -6z"/>
<path d="M820 795 c0 -9 5 -15 11 -13 6 2 11 8 11 13 0 5 -5 11 -11 13 -6 2
-11 -4 -11 -13z"/>
<path d="M882 798 c6 -18 28 -21 28 -4 0 9 -7 16 -16 16 -9 0 -14 -5 -12 -12z"/>
<path d="M946 783 c-11 -11 -6 -23 9 -23 8 0 15 4 15 9 0 13 -16 22 -24 14z"/>
<path d="M792 749 c2 -6 8 -10 13 -10 5 0 11 4 13 10 2 6 -4 11 -13 11 -9 0
-15 -5 -13 -11z"/>
<path d="M860 745 c0 -9 5 -15 11 -13 6 2 11 8 11 13 0 5 -5 11 -11 13 -6 2
-11 -4 -11 -13z"/>
<path d="M990 735 c0 -8 7 -15 15 -15 8 0 15 7 15 15 0 8 -7 15 -15 15 -8 0
-15 -7 -15 -15z"/>
<path d="M722 728 c6 -18 28 -21 28 -4 0 9 -7 16 -16 16 -9 0 -14 -5 -12 -12z"/>
<path d="M910 715 c0 -9 5 -15 11 -13 6 2 11 8 11 13 0 5 -5 11 -11 13 -6 2
-11 -4 -11 -13z"/>
<path d="M660 704 c0 -17 22 -14 28 4 2 7 -3 12 -12 12 -9 0 -16 -7 -16 -16z"/>
<path d="M776 703 c-11 -11 -6 -23 9 -23 8 0 15 4 15 9 0 13 -16 22 -24 14z"/>
<path d="M470 680 c0 -5 7 -10 15 -10 8 0 15 5 15 10 0 6 -7 10 -15 10 -8 0
-15 -4 -15 -10z"/>
<path d="M967 684 c-8 -8 1 -24 14 -24 5 0 9 7 9 15 0 15 -12 20 -23 9z"/>
<path d="M707 674 c-8 -8 1 -24 14 -24 5 0 9 7 9 15 0 15 -12 20 -23 9z"/>
<path d="M497 654 c-8 -8 1 -24 14 -24 5 0 9 7 9 15 0 15 -12 20 -23 9z"/>
<path d="M910 646 c0 -9 7 -16 16 -16 9 0 14 5 12 12 -6 18 -28 21 -28 4z"/>
<path d="M892 590 c-19 -30 -14 -39 13 -27 14 7 24 18 23 26 -5 22 -22 23 -36
1z"/>
<path d="M620 420 c0 -16 5 -30 10 -30 6 0 10 14 10 30 0 17 -4 30 -10 30 -5
0 -10 -13 -10 -30z"/>
<path d="M496 331 c-4 -5 -2 -12 3 -15 5 -4 12 -2 15 3 4 5 2 12 -3 15 -5 4
-12 2 -15 -3z"/>
<path d="M615 331 c-6 -11 9 -23 19 -14 9 9 7 23 -3 23 -6 0 -12 -4 -16 -9z"/>
<path d="M735 330 c-3 -5 1 -10 10 -10 9 0 13 5 10 10 -3 6 -8 10 -10 10 -2 0
-7 -4 -10 -10z"/>
</g>
</svg>
